<svg width="42" height="42" viewBox="0 0 42 42" fill="none" xmlns="http://www.w3.org/2000/svg">
<path d="M39.2546 0.351074H2.62204C1.3677 0.351828 0.350853 1.36918 0.351105 2.62402V39.2566C0.351859 40.511 1.36921 41.5278 2.62405 41.5275H22.3467V25.6038H16.9986V19.3711H22.3467V14.7842C22.3467 9.46499 25.5941 6.56977 30.339 6.56977C32.6117 6.56977 34.5647 6.73916 35.134 6.81481V12.3743H31.862C29.2804 12.3743 28.7806 13.601 28.7806 15.4014V19.3711H34.953L34.1488 25.6038H28.7806V41.5275H39.2546C40.5097 41.5278 41.5273 40.5107 41.5276 39.2556C41.5276 39.2554 41.5276 39.2551 41.5276 39.2546V2.62201C41.5271 1.36767 40.5095 0.350823 39.2546 0.351074Z" fill="white"/>
</svg>
