<svg width="42" height="40" viewBox="0 0 42 40" fill="none" xmlns="http://www.w3.org/2000/svg">
<path d="M5.18775 0.230225C2.16837 0.230225 0.194244 2.2129 0.194244 4.81885C0.194244 7.36725 2.10956 9.40647 5.07189 9.40647H5.12919C8.20762 9.40647 10.1234 7.36725 10.1234 4.81885C10.0659 2.2129 8.20762 0.230225 5.18775 0.230225Z" fill="white"/>
<path d="M0.715973 13.0325H9.54288V39.5886H0.715973V13.0325Z" fill="white"/>
<path d="M31.2088 12.4092C26.447 12.4092 23.254 16.8837 23.254 16.8837V13.0325H14.4268V39.5886H23.2535V24.7586C23.2535 23.9647 23.311 23.172 23.5442 22.6043C24.1824 21.0189 25.6345 19.3766 28.0731 19.3766C31.2671 19.3766 32.5446 21.8119 32.5446 25.3819V39.5886H41.3707V24.3618C41.3707 16.2049 37.0158 12.4092 31.2088 12.4092Z" fill="white"/>
</svg>
